<svg width="152" height="24" viewBox="0 0 152 24" fill="none" xmlns="http://www.w3.org/2000/svg">
<g clip-path="url(#clip0)">
<path d="M23.9655 9.24635C23.8829 8.99178 23.6629 8.80624 23.398 8.76781L15.9579 7.68664L12.6305 0.944777C12.5121 0.704778 12.2677 0.552856 12 0.552856C11.7324 0.552856 11.488 0.704778 11.3695 0.944777L8.04198 7.68664L0.602007 8.76781C0.337211 8.80624 0.117134 8.99178 0.0344468 9.24631C-0.0482872 9.50088 0.0207125 9.7803 0.212384 9.9671L5.59586 15.2149L4.32518 22.625C4.2799 22.8888 4.38837 23.1554 4.60488 23.3127C4.72737 23.4017 4.87244 23.447 5.01822 23.447C5.13016 23.447 5.24247 23.4203 5.34532 23.3662L12 19.8676L18.6544 23.3662C18.8913 23.4907 19.1784 23.47 19.3949 23.3127C19.6114 23.1554 19.7199 22.8888 19.6747 22.6249L18.4036 15.2149L23.7877 9.96705C23.9793 9.7803 24.0483 9.50088 23.9655 9.24635Z" fill="#DC233E"/>
</g>
<g clip-path="url(#clip1)">
<path d="M55.9655 9.24635C55.8829 8.99178 55.6629 8.80624 55.398 8.76781L47.9579 7.68664L44.6305 0.944777C44.5121 0.704778 44.2677 0.552856 44 0.552856C43.7324 0.552856 43.488 0.704778 43.3695 0.944777L40.042 7.68664L32.602 8.76781C32.3372 8.80624 32.1171 8.99178 32.0344 9.24631C31.9517 9.50088 32.0207 9.7803 32.2124 9.9671L37.5959 15.2149L36.3252 22.625C36.2799 22.8888 36.3884 23.1554 36.6049 23.3127C36.7274 23.4017 36.8724 23.447 37.0182 23.447C37.1302 23.447 37.2425 23.4203 37.3453 23.3662L44 19.8676L50.6544 23.3662C50.8913 23.4907 51.1784 23.47 51.3949 23.3127C51.6114 23.1554 51.7199 22.8888 51.6747 22.6249L50.4036 15.2149L55.7877 9.96705C55.9793 9.7803 56.0483 9.50088 55.9655 9.24635Z" fill="#DC233E"/>
</g>
<g clip-path="url(#clip2)">
<path d="M87.9655 9.24635C87.8829 8.99178 87.6629 8.80624 87.398 8.76781L79.9579 7.68664L76.6305 0.944777C76.5121 0.704778 76.2677 0.552856 76 0.552856C75.7324 0.552856 75.488 0.704778 75.3695 0.944777L72.042 7.68664L64.602 8.76781C64.3372 8.80624 64.1171 8.99178 64.0344 9.24631C63.9517 9.50088 64.0207 9.7803 64.2124 9.9671L69.5959 15.2149L68.3252 22.625C68.2799 22.8888 68.3884 23.1554 68.6049 23.3127C68.7274 23.4017 68.8724 23.447 69.0182 23.447C69.1302 23.447 69.2425 23.4203 69.3453 23.3662L76 19.8676L82.6544 23.3662C82.8913 23.4907 83.1784 23.47 83.3949 23.3127C83.6114 23.1554 83.7199 22.8888 83.6747 22.6249L82.4036 15.2149L87.7877 9.96705C87.9793 9.7803 88.0483 9.50088 87.9655 9.24635Z" fill="#DC233E"/>
</g>
<g clip-path="url(#clip3)">
<path d="M119.966 9.24635C119.883 8.99178 119.663 8.80624 119.398 8.76781L111.958 7.68664L108.631 0.944777C108.512 0.704778 108.268 0.552856 108 0.552856C107.732 0.552856 107.488 0.704778 107.37 0.944777L104.042 7.68664L96.602 8.76781C96.3372 8.80624 96.1171 8.99178 96.0344 9.24631C95.9517 9.50088 96.0207 9.7803 96.2124 9.9671L101.596 15.2149L100.325 22.625C100.28 22.8888 100.388 23.1554 100.605 23.3127C100.727 23.4017 100.872 23.447 101.018 23.447C101.13 23.447 101.242 23.4203 101.345 23.3662L108 19.8676L114.654 23.3662C114.891 23.4907 115.178 23.47 115.395 23.3127C115.611 23.1554 115.72 22.8888 115.675 22.6249L114.404 15.2149L119.788 9.96705C119.979 9.7803 120.048 9.50088 119.966 9.24635Z" fill="#DC233E"/>
</g>
<g clip-path="url(#clip4)">
<path d="M151.966 9.24635C151.883 8.99178 151.663 8.80624 151.398 8.76781L143.958 7.68664L140.631 0.944777C140.512 0.704778 140.268 0.552856 140 0.552856C139.732 0.552856 139.488 0.704778 139.37 0.944777L136.042 7.68664L128.602 8.76781C128.337 8.80624 128.117 8.99178 128.034 9.24631C127.952 9.50088 128.021 9.7803 128.212 9.9671L133.596 15.2149L132.325 22.625C132.28 22.8888 132.388 23.1554 132.605 23.3127C132.727 23.4017 132.872 23.447 133.018 23.447C133.13 23.447 133.242 23.4203 133.345 23.3662L140 19.8676L146.654 23.3662C146.891 23.4907 147.178 23.47 147.395 23.3127C147.611 23.1554 147.72 22.8888 147.675 22.6249L146.404 15.2149L151.788 9.96705C151.979 9.7803 152.048 9.50088 151.966 9.24635Z" fill="#D5E0EF"/>
</g>
<defs>
<clipPath id="clip0">
<rect width="24" height="24" fill="white"/>
</clipPath>
<clipPath id="clip1">
<rect width="24" height="24" fill="white" transform="translate(32)"/>
</clipPath>
<clipPath id="clip2">
<rect width="24" height="24" fill="white" transform="translate(64)"/>
</clipPath>
<clipPath id="clip3">
<rect width="24" height="24" fill="white" transform="translate(96)"/>
</clipPath>
<clipPath id="clip4">
<rect width="24" height="24" fill="white" transform="translate(128)"/>
</clipPath>
</defs>
</svg>
