<svg width="32" height="32" viewBox="0 0 32 32" fill="none" xmlns="http://www.w3.org/2000/svg">
<g clip-path="url(#clip0)">
<path d="M10 18C12.2091 18 14 16.2091 14 14L14 8C14 5.79086 12.2091 4 10 4L4 4C1.79086 4 2.02901e-06 5.79086 1.83588e-06 8L9.44166e-07 18.2C2.52721e-07 26.1092 6.10895 28.3167 8.26081 28.849C8.69637 28.9567 9.12223 28.7148 9.29898 28.3024L9.68971 27.3907C9.94777 26.7885 9.5685 26.0846 8.95194 25.8631C7.70683 25.4159 5.90807 24.4323 5.4 22.4C5.06583 21.3975 5.15043 20.4647 5.36225 19.7184C5.69403 18.5495 6.90737 18 8.1225 18L10 18Z" fill="#DC233E"/>
<path d="M28 18C30.2091 18 32 16.2091 32 14L32 8C32 5.79086 30.2091 4 28 4L22 4C19.7909 4 18 5.79086 18 8L18 18.2C18 26.1092 24.1089 28.3167 26.2608 28.849C26.6964 28.9567 27.1222 28.7148 27.299 28.3024L27.6897 27.3907C27.9478 26.7885 27.5685 26.0846 26.9519 25.8631C25.7068 25.4159 23.9081 24.4323 23.4 22.4C23.0658 21.3975 23.1504 20.4647 23.3623 19.7184C23.694 18.5495 24.9074 18 26.1225 18L28 18Z" fill="#DC233E"/>
</g>
<defs>
<clipPath id="clip0">
<rect width="32" height="32" fill="white" transform="matrix(1 8.74228e-08 8.74228e-08 -1 0 32)"/>
</clipPath>
</defs>
</svg>
