<svg width="48" height="48" viewBox="0 0 48 48" fill="none" xmlns="http://www.w3.org/2000/svg">
<g clip-path="url(#clip0)">
<path d="M31 27C28.7909 27 27 25.2091 27 23L27 10C27 7.79087 28.7909 6.00001 31 6.00001L44 6.00001C46.2091 6.00001 48 7.79087 48 10L48 27.3C48 39.6566 38.0595 42.7354 35.2383 43.3604C34.8003 43.4575 34.3778 43.2148 34.201 42.8024L33.2103 40.4907C32.9522 39.8885 33.3296 39.187 33.9568 38.9978C35.7839 38.4466 39.049 37.004 39.9 33.6C40.548 31.6559 40.1462 29.8868 39.6394 28.6707C39.1721 27.549 37.9926 27 36.7775 27L31 27Z" fill="#D5E0EF"/>
<path d="M3.99999 27C1.79085 27 -4.12301e-06 25.2091 -3.92988e-06 23L-2.79338e-06 10C-2.60025e-06 7.79086 1.79086 6 4 6L17 6C19.2091 6 21 7.79086 21 10L21 27.3C21 39.6566 11.0595 42.7354 8.23835 43.3604C7.80028 43.4575 7.37777 43.2148 7.20102 42.8024L6.21029 40.4907C5.95223 39.8885 6.32958 39.187 6.95679 38.9978C8.78394 38.4466 12.049 37.004 12.9 33.6C13.548 31.6559 13.1462 29.8868 12.6394 28.6707C12.1721 27.549 10.9926 27 9.7775 27L3.99999 27Z" fill="#D5E0EF"/>
</g>
<defs>
<clipPath id="clip0">
<rect width="48" height="48" fill="white" transform="translate(48 48) rotate(-180)"/>
</clipPath>
</defs>
</svg>
