<svg width="23" height="21" viewBox="0 0 23 21" fill="none" xmlns="http://www.w3.org/2000/svg">
<path d="M10.5 11.1203C13.1003 11.1203 15.2085 8.65286 15.2085 5.60918C15.2085 1.38843 13.1004 0.0981445 10.5 0.0981445C7.89955 0.0981445 5.79156 1.38843 5.79156 5.60918C5.79162 8.65286 7.8996 11.1203 10.5 11.1203Z" fill="white"/>
<path d="M20.8973 19.232L18.5218 13.8808C18.4132 13.6359 18.2223 13.4329 17.9847 13.3092L14.2981 11.3901C14.2168 11.3478 14.1184 11.356 14.0453 11.4114C13.0026 12.2 11.7766 12.6169 10.5001 12.6169C9.22327 12.6169 7.99739 12.2 6.95469 11.4114C6.8814 11.356 6.78296 11.3478 6.70167 11.3901L3.01532 13.3092C2.77764 13.4329 2.58697 13.6358 2.47821 13.8808L0.10273 19.232C-0.0610452 19.6009 -0.0274792 20.023 0.192547 20.3614C0.41247 20.6997 0.784672 20.9016 1.18823 20.9016H19.8117C20.2153 20.9016 20.5876 20.6996 20.8075 20.3614C21.0274 20.023 21.0611 19.6008 20.8973 19.232Z" fill="white"/>
</svg>
