<svg width="44" height="47" viewBox="0 0 44 47" fill="none" xmlns="http://www.w3.org/2000/svg">
<g clip-path="url(#clip0)">
<path d="M9.10938 46.6031H34.8906C37.0231 46.6031 38.7578 44.7657 38.7578 42.507V13.6529H29.7344C27.6019 13.6529 25.8672 11.8155 25.8672 9.55688V-0.000488281H9.10938C6.97692 -0.000488281 5.24219 1.83689 5.24219 4.09553V42.507C5.24219 44.7657 6.97692 46.6031 9.10938 46.6031ZM14.2656 19.2053H29.7344C30.4469 19.2053 31.0234 19.8159 31.0234 20.5706C31.0234 21.3253 30.4469 21.9359 29.7344 21.9359H14.2656C13.5531 21.9359 12.9766 21.3253 12.9766 20.5706C12.9766 19.8159 13.5531 19.2053 14.2656 19.2053ZM14.2656 24.6666H29.7344C30.4469 24.6666 31.0234 25.2773 31.0234 26.032C31.0234 26.7866 30.4469 27.3973 29.7344 27.3973H14.2656C13.5531 27.3973 12.9766 26.7866 12.9766 26.032C12.9766 25.2773 13.5531 24.6666 14.2656 24.6666ZM14.2656 30.128H29.7344C30.4469 30.128 31.0234 30.7386 31.0234 31.4933C31.0234 32.248 30.4469 32.8587 29.7344 32.8587H14.2656C13.5531 32.8587 12.9766 32.248 12.9766 31.4933C12.9766 30.7386 13.5531 30.128 14.2656 30.128ZM14.2656 35.5893H24.5781C25.2906 35.5893 25.8672 36.2 25.8672 36.9547C25.8672 37.7093 25.2906 38.32 24.5781 38.32H14.2656C13.5531 38.32 12.9766 37.7093 12.9766 36.9547C12.9766 36.2 13.5531 35.5893 14.2656 35.5893Z" fill="#DC233E"/>
<path d="M29.7344 10.9223H38.0025L28.4453 0.799561V9.55693C28.4453 10.3102 29.0232 10.9223 29.7344 10.9223Z" fill="#DC233E"/>
</g>
<defs>
<clipPath id="clip0">
<rect width="44" height="46.6035" fill="white" transform="translate(0 -0.000488281)"/>
</clipPath>
</defs>
</svg>
