<svg width="44" height="42" viewBox="0 0 44 42" fill="none" xmlns="http://www.w3.org/2000/svg">
<path d="M44 3.87248C44 1.91537 42.4135 0.328857 40.4564 0.328857H3.54362C1.58651 0.328857 0 1.91537 0 3.87248V38.1275C0 40.0846 1.58651 41.6711 3.54362 41.6711H40.4564C42.4135 41.6711 44 40.0846 44 38.1275V3.87248ZM13.4362 4.75839H19.7852V9.77852H13.4362V4.75839ZM9.00671 37.2416H4.42953V32.2215H9.00671V37.2416ZM9.00671 9.77852H4.42953V4.75839H9.00671V9.77852ZM19.7852 37.2416H13.4362V32.2215H19.7852V37.2416ZM18.1611 25.0911V16.9087C18.1611 15.6906 19.0275 15.24 20.0466 15.9072L25.9876 19.7863C27.0067 20.4535 27.015 21.5454 25.9959 22.2128L20.0424 26.0926C19.0234 26.76 18.1611 26.3092 18.1611 25.0911ZM30.5638 37.2416H24.2148V32.2215H30.5638V37.2416ZM30.5638 9.77852H24.2148V4.75839H30.5638V9.77852ZM39.5705 37.2416H34.9933V32.2215H39.5705V37.2416ZM39.5705 9.77852H34.9933V4.75839H39.5705V9.77852Z" fill="#DC233E"/>
</svg>
