<svg width="44" height="44" viewBox="0 0 44 44" fill="none" xmlns="http://www.w3.org/2000/svg">
<g clip-path="url(#clip0)">
<path d="M32.3988 1.37427H3.8672C1.73422 1.37427 0 3.10935 0 5.24146V25.8667C0 27.9996 1.73422 29.7339 3.8672 29.7339C6.57337 29.7339 6.93689 29.7339 6.93689 29.7339H7.73439V36.1793C7.73439 37.3291 9.1283 37.8972 9.93439 37.0911C13.5335 33.4912 11.006 36.0194 16.9135 30.112C17.1558 29.8697 17.4824 29.7339 17.8253 29.7339H32.3987C34.5308 29.7339 36.2659 27.9996 36.2659 25.8667C36.2659 13.8302 36.2659 17.3072 36.2659 5.24146C36.266 3.10935 34.5309 1.37427 32.3988 1.37427ZM6.44541 9.10866H24.6644C25.3768 9.10866 25.9534 9.6853 25.9534 10.3977C25.9534 11.1101 25.3768 11.6868 24.6644 11.6868H6.44541C5.73299 11.6868 5.15635 11.1101 5.15635 10.3977C5.15635 9.6853 5.73299 9.10866 6.44541 9.10866ZM19.508 21.9995H6.44541C5.73299 21.9995 5.15635 21.4228 5.15635 20.7104C5.15635 19.998 5.73299 19.4214 6.44541 19.4214H19.508C20.2204 19.4214 20.7971 19.998 20.7971 20.7104C20.7971 21.4228 20.2204 21.9995 19.508 21.9995ZM29.8206 16.8431H6.44541C5.73299 16.8431 5.15635 16.2665 5.15635 15.5541C5.15635 14.8416 5.73299 14.265 6.44541 14.265H29.8206C30.5331 14.265 31.1097 14.8416 31.1097 15.5541C31.1097 16.2665 30.5331 16.8431 29.8206 16.8431Z" fill="#DC233E"/>
<path d="M40.1333 6.53052H38.8614V25.8667C38.8614 29.4204 35.9527 32.3121 32.3988 32.3121H18.5313L15.7812 34.873H26.7088L34.0656 42.247C34.8739 43.0552 36.266 42.488 36.266 41.3356V34.873H40.1332C42.2657 34.873 44.0004 33.1555 44.0004 31.023V10.3978C44.0005 8.26526 42.2659 6.53052 40.1333 6.53052Z" fill="#DC233E"/>
</g>
<defs>
<clipPath id="clip0">
<rect width="44" height="44" fill="white"/>
</clipPath>
</defs>
</svg>
