<svg width="44" height="44" viewBox="0 0 44 44" fill="none" xmlns="http://www.w3.org/2000/svg">
<path d="M9.10938 44H34.8906C37.0231 44 38.7578 42.2653 38.7578 40.1328V12.8906H29.7344C27.6019 12.8906 25.8672 11.1559 25.8672 9.02344V0H9.10938C6.97692 0 5.24219 1.73473 5.24219 3.86719V40.1328C5.24219 42.2653 6.97692 44 9.10938 44ZM14.2656 18.1328H29.7344C30.4469 18.1328 31.0234 18.7094 31.0234 19.4219C31.0234 20.1344 30.4469 20.7109 29.7344 20.7109H14.2656C13.5531 20.7109 12.9766 20.1344 12.9766 19.4219C12.9766 18.7094 13.5531 18.1328 14.2656 18.1328ZM14.2656 23.2891H29.7344C30.4469 23.2891 31.0234 23.8656 31.0234 24.5781C31.0234 25.2906 30.4469 25.8672 29.7344 25.8672H14.2656C13.5531 25.8672 12.9766 25.2906 12.9766 24.5781C12.9766 23.8656 13.5531 23.2891 14.2656 23.2891ZM14.2656 28.4453H29.7344C30.4469 28.4453 31.0234 29.0219 31.0234 29.7344C31.0234 30.4469 30.4469 31.0234 29.7344 31.0234H14.2656C13.5531 31.0234 12.9766 30.4469 12.9766 29.7344C12.9766 29.0219 13.5531 28.4453 14.2656 28.4453ZM14.2656 33.6016H24.5781C25.2906 33.6016 25.8672 34.1781 25.8672 34.8906C25.8672 35.6031 25.2906 36.1797 24.5781 36.1797H14.2656C13.5531 36.1797 12.9766 35.6031 12.9766 34.8906C12.9766 34.1781 13.5531 33.6016 14.2656 33.6016Z" fill="#DC233E"/>
<path d="M29.7344 10.3123H38.0025L28.4453 0.755127V9.02326C28.4453 9.73448 29.0232 10.3123 29.7344 10.3123Z" fill="#DC233E"/>
</svg>
