<svg width="42" height="42" viewBox="0 0 42 42" fill="none" xmlns="http://www.w3.org/2000/svg">
<path d="M21 -0.000488281C9.42014 -0.000488281 0 9.41965 0 20.9995C0 32.5794 9.42014 41.9995 21 41.9995C32.5799 41.9995 42 32.5794 42 20.9995C42 9.41965 32.5799 -0.000488281 21 -0.000488281ZM31.6436 16.5493L20.2684 27.9241C19.9272 28.2654 19.4792 28.4371 19.0312 28.4371C18.5833 28.4371 18.1353 28.2654 17.7941 27.9241L12.1067 22.2367C11.4222 21.5526 11.4222 20.4464 12.1067 19.7623C12.7908 19.0779 13.8966 19.0779 14.5811 19.7623L19.0312 24.2125L29.1692 14.0749C29.8533 13.3905 30.9591 13.3905 31.6436 14.0749C32.3277 14.759 32.3277 15.8649 31.6436 16.5493Z" fill="#DC233E"/>
</svg>
