<svg width="44" height="44" viewBox="0 0 44 44" fill="none" xmlns="http://www.w3.org/2000/svg">
<g clip-path="url(#clip0)">
<path d="M43.0974 0.00530503C34.5082 -0.148695 24.7127 4.34114 18.5124 11.306C12.5871 11.4178 6.81757 13.847 2.56974 18.0948C2.32224 18.3386 2.23424 18.7035 2.34241 19.0335C2.45241 19.3653 2.73841 19.6055 3.08307 19.655L10.1487 20.667L9.27607 21.6441C8.95157 22.0071 8.96807 22.559 9.31274 22.9036L21.0956 34.6865C21.2734 34.8643 21.5081 34.9541 21.7446 34.9541C21.9627 34.9541 22.1809 34.8771 22.3551 34.7213L23.3322 33.8486L24.3442 40.9143C24.3937 41.259 24.6651 41.512 24.9932 41.622C25.0776 41.6495 25.1656 41.6623 25.2554 41.6623C25.5157 41.6623 25.7816 41.5486 25.9649 41.3671C30.1541 37.178 32.5832 31.4085 32.6951 25.4831C39.6672 19.27 44.1937 9.47814 43.9939 0.899972C43.9811 0.412305 43.5869 0.0181384 43.0974 0.00530503ZM34.6494 15.8306C33.7566 16.7235 32.5832 17.1708 31.4081 17.1708C30.2329 17.1708 29.0596 16.7235 28.1667 15.8306C26.3811 14.0431 26.3811 11.1355 28.1667 9.34797C29.9542 7.56047 32.8619 7.56047 34.6494 9.34797C36.4369 11.1355 36.4369 14.045 34.6494 15.8306Z" fill="#DC233E"/>
<path d="M4.99411 30.9924C3.03244 32.954 0.339272 41.8164 0.0386052 42.8192C-0.0585614 43.1419 0.0312719 43.4921 0.267772 43.7304C0.443772 43.9064 0.676605 43.9999 0.916772 43.9999C1.00477 43.9999 1.09277 43.9871 1.18077 43.9614C2.18361 43.6607 11.0459 40.9676 13.0076 39.0059C15.2168 36.7967 15.2168 33.2015 13.0076 30.9924C10.7966 28.7832 7.20327 28.785 4.99411 30.9924Z" fill="#DC233E"/>
</g>
<defs>
<clipPath id="clip0">
<rect width="44" height="44" fill="white"/>
</clipPath>
</defs>
</svg>
