<svg width="27" height="59" viewBox="0 0 27 59" fill="none" xmlns="http://www.w3.org/2000/svg">
<path d="M27 13.2614V16.0436C27 16.6699 26.4835 16.5487 25.8453 16.5487C25.207 16.5487 24.6899 16.6699 24.6899 16.0436V13.2614C24.6899 7.19968 19.6704 2.26929 13.5004 2.26929C7.32999 2.26929 2.31049 7.2005 2.31049 13.2614V15.1352V24.9639V48.0338C2.31049 52.8294 6.28242 56.7321 11.1642 56.7321C16.0475 56.7321 20.0192 52.8308 20.0192 48.0338V28.9032V18.6881C20.0192 15.5601 17.4287 13.0157 14.2447 13.0157C11.0593 13.0157 8.46985 15.5602 8.46985 18.6881V44.175C8.46985 44.8011 7.95331 45.3092 7.31478 45.3092C6.6765 45.3092 6.16008 44.8011 6.16008 44.175V18.6882C6.16008 14.31 9.78701 10.7469 14.2447 10.7469C18.7024 10.7469 22.3293 14.31 22.3293 18.6882V28.9034V48.0339V48.941C22.3293 49.1015 22.2955 49.2522 22.2345 49.3899C21.551 54.7978 16.8514 59 11.1637 59C5.00776 59 0 54.0807 0 48.0339V24.9632V15.1345V13.2607C0.000598542 5.9495 6.05629 0 13.5004 0C20.9438 0 27 5.9495 27 13.2614Z" fill="#DC233E"/>
</svg>
