<svg width="24" height="24" viewBox="0 0 24 24" fill="none" xmlns="http://www.w3.org/2000/svg">
<path d="M23.9656 9.24635C23.8829 8.99178 23.6629 8.80624 23.398 8.76781L15.9579 7.68664L12.6305 0.944777C12.5121 0.704778 12.2677 0.552856 12.0001 0.552856C11.7324 0.552856 11.488 0.704778 11.3695 0.944777L8.04199 7.68664L0.602022 8.76781C0.337227 8.80624 0.117149 8.99178 0.0344621 9.24631C-0.048272 9.50088 0.0207277 9.7803 0.212399 9.9671L5.59588 15.2149L4.3252 22.625C4.27991 22.8888 4.38838 23.1554 4.6049 23.3127C4.72738 23.4017 4.87246 23.447 5.01824 23.447C5.13018 23.447 5.24249 23.4203 5.34533 23.3662L12 19.8676L18.6544 23.3662C18.8914 23.4907 19.1784 23.47 19.3949 23.3127C19.6114 23.1554 19.7199 22.8888 19.6747 22.6249L18.4036 15.2149L23.7877 9.96705C23.9793 9.7803 24.0483 9.50088 23.9656 9.24635Z" fill="#DC233E"/>
</svg>
