<svg width="38" height="44" viewBox="0 0 38 44" fill="none" xmlns="http://www.w3.org/2000/svg">
<path d="M36.0801 5.31205C33.0296 5.31205 30.2325 3.52103 28.9541 0.749117C28.7435 0.292445 28.2865 0 27.7836 0H10.2156C9.71262 0 9.25569 0.292445 9.04505 0.749203C7.76656 3.52103 4.96938 5.31205 1.91895 5.31205C1.20704 5.31205 0.629883 5.88921 0.629883 6.60112V20.8763C0.629883 26.2237 5.2736 32.1519 9.16915 36.1834C11.6554 38.7564 13.9624 40.6912 15.1163 41.6156C18.0929 44 18.6384 44 18.9994 44H19.0035C19.3646 44 19.9174 43.991 22.8827 41.6157C24.0366 40.6914 26.3436 38.7565 28.8298 36.1836C32.7255 32.152 37.3692 26.2237 37.3692 20.8764V6.60112C37.3692 5.88921 36.792 5.31205 36.0801 5.31205ZM16.0918 34.8572C15.2961 34.2198 13.7053 32.8857 11.9915 31.112C9.27837 28.3042 6.04429 24.1619 6.04429 20.3731V10.6231C6.04429 9.91117 6.62145 9.33402 7.33335 9.33402C9.25801 9.33402 11.0228 8.20394 11.8294 6.45494C12.0401 5.99827 12.4971 5.70573 13 5.70573H24.9991C25.5021 5.70573 25.959 5.99818 26.1696 6.45494C26.9763 8.20394 28.7411 9.33402 30.6657 9.33402C31.3776 9.33402 31.9548 9.91117 31.9548 10.6231V20.3731C31.9548 24.1619 28.7206 28.3042 26.0076 31.112C24.2937 32.8858 22.7029 34.2199 21.9072 34.8573C19.7733 36.5666 19.3611 36.5754 19.0049 36.5754C19.0031 36.5754 19.0012 36.5754 18.9994 36.5754C18.642 36.5754 18.2368 36.5754 16.0918 34.8572Z" fill="#DC233E"/>
<path d="M24.5079 28.9488C27.6474 25.6121 29.3764 22.5665 29.3764 20.3732V11.8002C27.2457 11.427 25.3561 10.1441 24.2267 8.28394H13.7717C12.6423 10.1441 10.7526 11.427 8.62207 11.8002V20.3732C8.62207 22.5665 10.351 25.6121 13.4906 28.9488C15.7503 31.3504 18.0338 33.157 18.9992 33.8191C19.9645 33.157 22.2481 31.3505 24.5079 28.9488ZM17.5762 26.967V26.6132C16.8158 26.5114 16.1653 26.2615 15.3002 25.6955C14.7044 25.3057 14.5374 24.5068 14.9271 23.911C15.3169 23.3152 16.1157 23.1481 16.7116 23.5379C17.5048 24.0569 17.8074 24.1049 18.8567 24.0973C19.8553 24.0907 20.4348 23.3465 20.5505 22.6578C20.6196 22.2471 20.591 21.5072 19.6237 21.1654C18.3712 20.7227 17.0883 20.2159 16.1914 19.5124C15.2798 18.7975 14.8618 17.5654 15.1009 16.2971C15.3578 14.9337 16.3054 13.847 17.5764 13.4538V13.0577C17.5764 12.3458 18.1536 11.7686 18.8655 11.7686C19.5774 11.7686 20.1545 12.3458 20.1545 13.0577V13.3741C20.9553 13.5773 21.5148 13.9446 21.7455 14.117C22.3156 14.5434 22.4321 15.3512 22.0058 15.9214C21.5795 16.4914 20.7716 16.608 20.2015 16.1817C19.9644 16.0044 19.3088 15.6234 18.3449 15.9137C17.8056 16.0762 17.6648 16.6137 17.6344 16.7745C17.577 17.0788 17.6379 17.3705 17.7825 17.4839C18.3885 17.9592 19.4877 18.3829 20.483 18.7347C22.3695 19.4016 23.4184 21.1499 23.0931 23.0853C22.8527 24.5151 21.8001 25.9639 20.1545 26.4789V26.9671C20.1545 27.679 19.5774 28.2562 18.8655 28.2562C18.1536 28.2562 17.5762 27.6789 17.5762 26.967Z" fill="#DC233E"/>
</svg>
