<svg width="42" height="42" viewBox="0 0 42 42" fill="none" xmlns="http://www.w3.org/2000/svg">
<path d="M41.9407 16.1826C41.8196 15.8102 41.5261 15.519 41.1525 15.4014L29.2386 11.6471L21.9864 1.47636C21.759 1.15759 21.3916 0.968262 21 0.968262C20.6084 0.968262 20.241 1.15759 20.0136 1.47636L12.7613 11.6471L0.847458 15.4015C0.473888 15.5192 0.18038 15.8103 0.0593015 16.1827C-0.0616945 16.555 0.00475078 16.963 0.23772 17.2778L7.66951 27.318L7.55852 39.8091C7.55507 40.2006 7.74104 40.5697 8.05792 40.7999C8.37481 41.0302 8.78341 41.093 9.15468 40.9687L21 37.0031L32.8454 40.9686C32.971 41.0107 33.1007 41.0313 33.2299 41.0313C33.4826 41.0313 33.7325 40.9522 33.9421 40.7998C34.2589 40.5697 34.445 40.2005 34.4416 39.809L34.3306 27.3179L41.7623 17.2777C41.9952 16.963 42.0617 16.555 41.9407 16.1826ZM18.0959 19.8098L15.6729 26.2713C15.4956 26.7441 15.0435 27.0574 14.5385 27.0574C14.0334 27.0574 13.5813 26.7441 13.4041 26.2713L10.981 19.8098C10.7461 19.1832 11.0635 18.485 11.69 18.2499C12.3167 18.0151 13.0149 18.3324 13.2498 18.9589L14.5386 22.3954L15.8273 18.9589C16.0622 18.3324 16.7605 18.0151 17.3871 18.2499C18.0135 18.4849 18.3309 19.1832 18.0959 19.8098ZM22.2115 25.8459C22.2115 26.515 21.669 27.0574 21 27.0574C20.3309 27.0574 19.7885 26.5149 19.7885 25.8459V19.3844C19.7885 18.7152 20.3309 18.1728 21 18.1728C21.6691 18.1728 22.2115 18.7153 22.2115 19.3844V25.8459ZM28.2692 23.8267H26.25V25.8459C26.25 26.515 25.7075 27.0574 25.0385 27.0574C24.3694 27.0574 23.827 26.5149 23.827 25.8459V19.3844C23.827 18.7152 24.3694 18.1728 25.0385 18.1728H28.2693C29.828 18.1728 31.0962 19.441 31.0962 20.9998C31.0962 22.5586 29.828 23.8267 28.2692 23.8267Z" fill="#DC233E"/>
</svg>
